<?xml version="1.0" encoding="UTF-8"?><svg id="Layer_1" xmlns="http://www.w3.org/2000/svg" viewBox="0 0 841.89 595.28"><defs><style>.cls-1{fill:none;}.cls-2{fill:#04579e;}.cls-3{fill:#fff;}.cls-4{fill:#22bbe6;}.cls-5{fill:#2991c9;}</style></defs><g><g><path class="cls-2" d="M368.09,375.78h-10.63l-2.2,4.81h-2.94l9.06-19.23h2.83l9.09,19.23h-3l-2.2-4.81Zm-1-2.2l-4.31-9.42-4.32,9.42h8.63Z"/><path class="cls-2" d="M403.05,378.2v2.39h-14.52v-19.23h14.12v2.39h-11.26v5.9h10.03v2.34h-10.03v6.21h11.66Z"/><path class="cls-2" d="M433.9,380.59l-4.32-5.9c-.4,.03-.83,.05-1.26,.05h-4.95v5.85h-2.86v-19.23h7.8c5.2,0,8.34,2.53,8.34,6.7,0,2.97-1.6,5.11-4.4,6.07l4.75,6.46h-3.12Zm-.08-12.53c0-2.75-1.92-4.31-5.57-4.31h-4.86v8.65h4.86c3.66,0,5.57-1.59,5.57-4.34Z"/><path class="cls-2" d="M451.13,370.97c0-5.63,4.52-9.84,10.66-9.84s10.6,4.18,10.6,9.84-4.52,9.83-10.6,9.83-10.66-4.2-10.66-9.83Zm18.4,0c0-4.26-3.31-7.39-7.74-7.39s-7.8,3.13-7.8,7.39,3.31,7.39,7.8,7.39,7.74-3.13,7.74-7.39Z"/><path class="cls-2" d="M487.05,378.39l1.06-2.14c1.49,1.29,4.03,2.22,6.6,2.22,3.46,0,4.94-1.29,4.94-2.97,0-4.7-12.12-1.73-12.12-8.87,0-2.97,2.4-5.49,7.66-5.49,2.35,0,4.77,.6,6.43,1.7l-.94,2.2c-1.74-1.07-3.71-1.57-5.49-1.57-3.4,0-4.86,1.37-4.86,3.05,0,4.7,12.12,1.76,12.12,8.82,0,2.94-2.46,5.47-7.74,5.47-3.06,0-6.06-.99-7.66-2.42Z"/><path class="cls-2" d="M535.81,368.06c0,4.18-3.14,6.7-8.34,6.7h-4.95v5.82h-2.86v-19.23h7.8c5.2,0,8.34,2.53,8.34,6.7Zm-2.86,0c0-2.75-1.92-4.31-5.57-4.31h-4.86v8.62h4.86c3.66,0,5.57-1.57,5.57-4.31Z"/><path class="cls-2" d="M566.02,375.78h-10.63l-2.2,4.81h-2.94l9.06-19.23h2.83l9.09,19.23h-3l-2.2-4.81Zm-1-2.2l-4.32-9.42-4.32,9.42h8.63Z"/><path class="cls-2" d="M584.61,370.97c0-5.69,4.52-9.84,10.6-9.84,3.08,0,5.77,1.02,7.6,3l-1.86,1.73c-1.54-1.57-3.43-2.28-5.63-2.28-4.52,0-7.86,3.13-7.86,7.39s3.34,7.39,7.86,7.39c2.2,0,4.09-.74,5.63-2.31l1.86,1.73c-1.83,1.98-4.52,3.02-7.63,3.02-6.06,0-10.57-4.15-10.57-9.83Z"/><path class="cls-2" d="M633.96,378.2v2.39h-14.52v-19.23h14.12v2.39h-11.26v5.9h10.03v2.34h-10.03v6.21h11.66Z"/></g><path class="cls-2" d="M440.98,299.9c-19.45,0-38.9,0-58.36,0-.58,0-1.27,.18-1.72-.06-.53-.28-1.26-.97-1.23-1.42,.16-1.86,.54-3.71,.9-5.55,1.49-7.56,5.56-11.2,13.18-11.46,5.63-.19,11.28-.11,16.92-.14,1.17,0,2.2-.07,2.44-1.58,.61-3.84,1.26-7.67,1.96-11.49,.21-1.17-.23-1.57-1.3-1.54-9.19,.26-18.44-.05-27.56,.92-12.84,1.37-18.48,8.42-21.1,18.92-2.05,8.21-3.25,16.63-4.76,24.97-1.27,7.01-2.46,14.03-3.67,21.04-.58,3.36-1.13,6.73-1.7,10.14,.37,.13,.6,.28,.84,.28,4.93,.02,9.86,0,14.78,.04,1.22,0,1.26-.77,1.41-1.65,1.43-8.1,2.87-16.19,4.36-24.28,.52-2.83,.58-2.82,3.57-2.82,19.71,0,39.42-.02,59.13,.04,1.62,0,2.34-.46,2.58-2.06,.47-3.2,1.05-6.39,1.64-9.57,.48-2.55,.36-2.73-2.33-2.73Zm157.9-33.02c-.79-.12-1.1-.21-1.41-.21-6.55,0-13.1-.04-19.65,.04-.82,0-1.75,.46-2.43,.98-10.78,8.19-21.52,16.44-32.29,24.64-2.89,2.2-2.25,2.01-4.42-.3-7.49-7.99-14.92-16.04-22.45-23.99-.7-.74-1.96-1.3-2.97-1.32-5.96-.12-11.93-.06-17.9-.05-.56,0-1.11,.1-2.25,.2,.86,.98,1.35,1.56,1.86,2.12,10.48,11.23,20.88,22.53,31.49,33.64,2.68,2.8,4.16,5.27,3.13,9.46-1.69,6.83-2.56,13.87-3.76,20.82-.56,3.24-1.08,6.48-1.62,9.76,.38,.13,.62,.28,.86,.28,4.93,.02,9.86,.07,14.78-.02,.49,0,1.28-.82,1.39-1.37,.78-3.8,1.44-7.63,2.11-11.46,1.16-6.63,2.4-13.26,3.4-19.91,.36-2.4,1.59-3.88,3.42-5.28,15.65-12.07,31.24-24.21,46.85-36.34,.56-.43,1.06-.95,1.85-1.67Zm-87.68,61.51c-1.04,.04-2.08,0-3.11,0-14.79-.03-29.58,.02-44.37-.13-6.86-.07-8.86-2.52-7.83-9.29,.93-6.15,2.08-12.26,3.17-18.38,1.69-9.5,3.42-19,5.12-28.5,.3-1.7,.54-3.41,.85-5.41-5.48,0-10.71-.02-15.93,.05-.37,0-.97,.67-1.05,1.1-1.36,7.39-2.65,14.79-3.95,22.19-1.18,6.7-2.41,13.38-3.54,20.09-1.03,6.12-2.43,12.19-1.98,18.5,.42,5.79,3.42,10.06,8.84,12.08,4.56,1.7,9.31,2.24,14.13,2.25,15.7,.04,31.4,.02,47.09,.03,.26,0,.52-.02,.78,0,1.06,.06,1.44-.45,1.59-1.48,.55-3.72,1.15-7.43,1.85-11.12,.29-1.53-.21-2.05-1.67-1.98Z"/><path class="cls-5" d="M731.54,343.47c-.4,3.43-1,6.9-2.17,10.19-1.65,4.65-6.08,6.82-11.74,7.21-3.72,.26-7.47,.27-11.21,.29-8.63,.04-17.27,0-25.9,.02-1.29,0-2.59,.06-3.88,.16-2.72,.23-4.44,1.38-5.07,3.56-.58,2.03-.95,4.09-1.45,6.14-.17,.7,.21,.95,.98,.96,.48,0,.96,.01,1.44,.01,17.03,0,34.05,0,51.08,0,2.13,0,2.23,.1,1.88,1.81-.38,1.86-.8,3.72-1.14,5.59-.18,.95-.58,1.4-1.93,1.4-21.39-.04-42.78-.03-64.17-.03-.47,0-.94-.04-1.62-.07,.4-2.02,.74-3.88,1.15-5.73,.89-3.94,1.74-7.89,2.76-11.82,1.4-5.36,5.94-8.71,12.62-9.32,2.85-.26,5.73-.42,8.6-.44,9.78-.05,19.57-.02,29.35-.02,.72,0,1.44,0,2.16-.01,3.17-.08,4.79-1.01,5.66-3.51,.47-1.35,.69-2.78,.81-4.18,.12-1.44-.63-2.13-2.33-2.37-.99-.14-2-.19-3-.19-5.9-.02-11.8,0-17.7-.01-2.17,0-2.14,0-1.75-1.72,.45-1.97,.89-3.95,1.25-5.93,.13-.71,.41-1.05,1.33-1.04,7.87,.04,15.73-.01,23.6,.12,2.63,.04,5.22,.65,7.34,2.1,2.61,1.79,3.34,4.3,3.05,6.83Z"/><path class="cls-5" d="M711.56,254.19c-4.98,.12-9.96,.08-14.94,.02-1.56-.02-2.34,.51-2.61,2.09-1.79,10.39-3.74,20.76-5.38,31.18-.39,2.46-1.27,3.06-3.59,3.05-19.62-.07-36.49-.04-56.11-.04-3.26,0-3.43-.2-2.83-3.53,1.38-7.64,2.79-15.27,4.15-22.91,.55-3.1,.99-6.21,1.52-9.55-.9-.11-1.55-.24-2.19-.25-5.06-.02-10.11,.06-15.17-.05-1.74-.04-2.46,.68-2.7,2.27-.35,2.31-.73,4.61-1.13,6.91-1.34,7.64-2.68,15.29-4.03,22.93-1.35,7.64-2.72,15.28-4.07,22.92-1.4,7.94-2.81,15.88-4.18,23.82-.56,3.22-1.05,6.45-1.63,9.98,6.05,0,11.62-.09,17.18,.05,2.1,.05,2.69-.81,3-2.69,1.71-10.33,3.58-20.64,5.3-30.97,.25-1.49,.91-1.83,2.24-1.81,3.77,.05,7.55,.02,11.32,.02,16.45,0,30.15,0,46.6,0,1.42,0,2.8-.19,2.38,2.06-1.41,7.63-2.75,15.27-4.09,22.92-.58,3.32-1.07,6.66-1.64,10.27,1.08,.07,1.88,.16,2.68,.16,4.38,.01,8.75,0,13.13,0,3.87,0,3.79-.01,4.43-3.9,1.05-6.39,2.23-12.77,3.34-19.15,1.33-7.65,2.65-15.29,3.99-22.94,1.34-7.64,2.7-15.29,4.06-22.93,1.03-5.79,2.04-11.58,3.1-17.36,.33-1.81-.09-2.61-2.14-2.56Z"/></g><path class="cls-1" d="M149.2,272.05c.8-1.39,1.57-2.66,2.26-3.78-5.59,3.47-10.28,6.8-14.18,10.04,3.73-2.05,7.7-4.13,11.92-6.25Z"/><path class="cls-2" d="M229.59,385.8c7.11,0,14.33-.72,21.53-2.21,9.41-1.95,18.03-4.92,25.78-8.78-10.57,3.97-22.29,6.2-34.65,6.2-35.04,0-65.05-17.79-77.75-43.09-6,1.22-11.64,2.22-16.94,3.02,15.36,27.83,47.43,44.86,82.03,44.86Z"/><path class="cls-3" d="M182.47,256.74c-1.05,.45-2.06,.89-3.09,1.34l-.15,.2c1.07-.51,2.13-1.02,3.24-1.53Z"/><path class="cls-5" d="M137.28,278.3c3.9-3.23,8.59-6.57,14.18-10.04,.77-1.24,1.45-2.31,1.99-3.13-.05,.02-.09,.05-.14,.07-53.4,25.96-70.78,46.6-63.61,62.35,.05,.1,.11,.19,.15,.29,6.23,12.87,31.78,14.56,74.86,5.62,16.77-3.48,36.18-8.56,58.15-15.23-60.24,16.22-91.12,14.7-99.19-3.01-.15-.33-.29-.67-.42-1.01-4.57-10.99-2.14-22.53,14.02-35.92Z"/><path class="cls-2" d="M263.48,190.36c-7.09-12.08-22.53-17.66-35.92-13-6.33,2.21-12.68,6.95-17.4,13.02-12.89,16.56-25.69,33.53-38.07,49.94-5.79,7.68-11.59,15.36-17.41,23.02-.47,.62-.93,1.24-1.38,1.86,.05-.02,.09-.05,.14-.07-.54,.82-1.23,1.88-1.99,3.13-.7,1.12-1.46,2.39-2.26,3.78-.76,1.32-1.56,2.74-2.35,4.24-2.17,4.1-4.35,8.74-5.89,13.29-.89,3.02-1.55,6.06-1.98,9.11-.4,5.2,.76,10.03,4.64,13.59,3.02,2.77,7.36,5,12.82,6.68-3.89-15.42-.12-30.44,11.41-45.62,3.81-5.02,7.6-10.04,11.39-15.07l.15-.2c1.97-2.6,3.94-5.2,5.9-7.81,12.34-16.36,25.1-33.27,37.91-49.74,2.74-3.52,6.49-6.42,9.8-7.57,1.48-.52,2.96-.75,4.41-.75,5.09,0,9.7,2.88,11.83,6.51,3.09,5.27,6.16,10.54,9.23,15.82,5.03-1.82,10.57-3.71,15.92-5.48-3.63-6.24-7.25-12.48-10.91-18.7Z"/><path class="cls-5" d="M302.56,218.26c0-.14,0-.29,.04-.44,.23-1.12,.55-1.99,.84-2.83,.59-1.65,1.12-3.11,.79-5.78,0,0-1.83,.55-4.84,1.48-8.29,2.55-25.6,7.99-38.77,12.83-1.9,.7-3.71,1.38-5.4,2.05-17.63,6.93-44.23,19.59-44.23,19.59,0,0,27.71-8.02,53.05-13.18,25.34-5.17,52.15-5.81,52.15-5.81-1.54-3.63-13.54-4.11-13.62-7.91Z"/><path class="cls-2" d="M359.38,200.43c-1.19-2.66-21.82,3.33-28.91,2.75-5.71-.47-10.46-2.49-13.85-3.02-3.4-.53-5.44,.43-5.44,.43,0,0,.37,1.22,.78,2.92,.74,3.09,1.63,7.78,.69,9.7-.89,1.82-.62,4.16,3.59,3.88,2.45-.16,5.39,.94,7.5,3.15,2.08,2.17,3.85,4.02,5.13,5.37,1.38,1.44,2.2,2.3,2.2,2.3,.1,.1,3.61-1.89,4.36-5.76,.49-2.52,.74-5.26,1.3-7.14,.27-.9,.6-1.61,1.07-1.98,1.63-1.28,8.89-4.65,14.55-7.64,4.11-2.17,7.38-4.14,7.02-4.95Z"/><path class="cls-4" d="M235.92,275.67c-1.17,0-1.78-.36-2.27-1.48-1.66-3.77-5.06-5.66-9.24-5.34-3.4,.27-6.57,2.87-7.61,6.25-1.43,4.62,.84,9.39,5.32,11.18,4.41,1.76,9.5-.2,11.44-4.62,.64-1.47,1.44-1.91,2.91-1.78,.37,.03,.63,.12,.84,.28v-4.88c-.35,.27-.77,.39-1.39,.39Z"/><path class="cls-5" d="M256.46,296.57c-1.11,.05-1.55-.44-1.93-1.41-.89-2.31-2.57-3.97-4.91-4.77-1.15-.4-1.19-1.12-1.2-2.07,0-.94,.03-1.64,1.15-2.09,3.79-1.52,6.25-5.47,5.77-8.99-.59-4.38-3.54-7.67-7.43-8.31-4.16-.68-8.22,1.43-9.9,5.34-.21,.48-.44,.8-.72,1.02v4.88c.21,.16,.36,.39,.49,.73,.98,2.61,2.78,4.47,5.41,5.4,1.01,.36,.98,1.06,.97,1.86-.02,.9,.09,1.71-1.06,2.18-3.95,1.64-5.91,4.61-5.74,8.95,.16,3.99,3.05,7.48,6.92,8.23,4.44,.85,8.61-1.09,10.13-5,.57-1.45,1.31-1.84,2.73-1.74,.38,.03,.67,.1,.91,.24v-4.75c-.45,.26-.97,.28-1.61,.31Z"/><g><path class="cls-2" d="M258.33,340.14c-.27,.74,.35,3.48,.58,4.02,1.69,3.89,5.5,5.84,9.92,5.18,3.67-.55,6.79-3.76,7.23-7.44,.52-4.31-1.56-8.16-5.42-9.65-1.14-.44-1.38-1.05-1.36-2.13,.02-1.03,.1-1.74,1.3-2.17,2.31-.84,4.02-2.49,4.85-4.84,.39-1.11,.97-1.43,2.09-1.43,1.15,0,1.76,.3,2.24,1.46,1.98,4.7,7.25,6.71,11.94,4.69,4.43-1.91,6.5-7.22,4.58-11.74-1.97-4.61-7.1-6.68-11.8-4.73-2.24,.93-3.85,2.58-4.73,4.78-.49,1.24-1.27,1.32-2.34,1.34-1.05,.01-1.6-.33-1.99-1.36-.87-2.32-2.53-3.99-4.87-4.81-1.11-.39-1.28-1.04-1.25-2.03,.02-.99,0-1.74,1.22-2.21,3.74-1.45,5.79-4.85,5.61-8.9-.17-3.75-2.58-7.13-6.36-7.99-4.24-.96-8.79,.16-10.85,5-.24,.57-.53,.89-.86,1.08v4.75c.29,.17,.51,.43,.68,.89,.94,2.56,2.78,4.33,5.33,5.22,1.15,.4,1.33,1.03,1.33,2.1,0,1.14-.21,1.92-1.41,2.3-1.68,.53-3.13,1.39-4.16,2.9-3.36,4.92-1.5,11.3,4.04,13.53,1.07,.43,1.56,.88,1.55,2.13,0,1.2-.5,1.68-1.5,2.03-2.47,.87-4.19,2.61-5.13,5.01"/><circle class="cls-2" cx="267.24" cy="340.73" r="9.18"/></g></svg>